<svg xmlns="http://www.w3.org/2000/svg" viewBox="0 0 513.56 496.28"><g data-name="Layer 2"><g data-name="Layer 1"><rect width="97.06" height="98.1" x="55.26" y="20.45" fill="#ffedc5" rx="13" transform="rotate(71.28 103.785 69.5)"/><rect width="114.32" height="114.32" x="46.63" y="12.34" fill="none" stroke="#ffcd52" stroke-linecap="round" stroke-linejoin="round" rx="13" transform="rotate(71.28 103.785 69.5)"/><path fill="#a8bed3" d="M220.74 317.94c-1.32 3.6 7.41 12.34 11.65 16.58 3.17 3.19 6.06 5.49 6.7 9.53s-1.24 7.13-2.12 8.83c-6.52 12.6-5 31.05 1.42 41.64.56.94 5.31 8.67 9.17 7.77s4.81-9.93 4.94-11.29c.52-5.48-1-7.45-1.05-12-.06-6.91 3.4-11.59 5.64-15.53 5.34-9.4 11.21-27.76 5.3-38.12-8.28-14.51-39.54-13.21-41.65-7.41Z"/><path fill="#ffccd8" d="M252.61 388.56c-5.65 5.33-11.87 4.16-16.17 2.15a32.36 32.36 0 0 0 1.95 3.81c.56.93 5.32 8.67 9.17 7.76s4.82-9.93 4.95-11.29a23.72 23.72 0 0 0 .1-2.43Z"/><path fill="#63717c" d="M242 392.33c.66 1.68 1.12 3.36 1.66 5a29.73 29.73 0 0 0 1.88 4.86 6.63 6.63 0 0 1-1.76-2.07 13 13 0 0 1-1.07-2.49 16.82 16.82 0 0 1-.59-2.62 11.54 11.54 0 0 1-.12-2.68ZM248.51 391.34c-.06 1.8-.14 3.53-.13 5.26 0 .87 0 1.74.05 2.61s.09 1.75.08 2.66a12.1 12.1 0 0 1-1.13-5.27 13.48 13.48 0 0 1 .26-2.69 9.29 9.29 0 0 1 .87-2.57Z"/><path fill="#88a4b7" d="M262.39 325.35c-8.28-14.51-39.54-13.21-41.65-7.41-1 2.78 3.94 8.61 8.2 13.08h35.45a18.45 18.45 0 0 0-2-5.67Z"/><path fill="#a8bed3" d="M152.38 315.72c-3 3.06-3.27 6.43 1.77 41.3a157.09 157.09 0 0 0 12.7 40.58c.82 1.71 2.74 5.48 6.71 7.06 2.09.84 5.66 1.42 7.76-.35 2.66-2.24 1.7-7.12.71-12.71-1.36-7.73-2.2-15.55-3.53-23.29-1.26-7.37-3.36-19.63-1.76-33.88 1.33-11.86 4.13-15.37 1.41-19.06-4.45-6.03-19.1-6.37-25.77.35Z"/><path fill="#ffccd8" d="M182.2 392.55c-6 5.59-12.63 3.87-16.91 1.65.49 1.13 1 2.27 1.56 3.4.82 1.71 2.74 5.48 6.71 7.06 2.09.84 5.65 1.42 7.76-.35 2.51-2.11 1.79-6.57.88-11.76Z"/><path fill="#63717c" d="M175 405.11a8.39 8.39 0 0 1-1.44-1.92 9.64 9.64 0 0 1-.95-2.21 6.61 6.61 0 0 1-.3-2.43 3.36 3.36 0 0 1 1-2.25 5.23 5.23 0 0 0-.17 2.24 11.78 11.78 0 0 0 .48 2.16c.31 1.45.87 2.87 1.38 4.41ZM180.67 404.75a7 7 0 0 1-1.77-1.9 9.3 9.3 0 0 1-1.12-2.36 8.23 8.23 0 0 1-.36-2.61 6.3 6.3 0 0 1 .55-2.54 24.22 24.22 0 0 0 .23 2.49 14.2 14.2 0 0 0 .54 2.36 26.73 26.73 0 0 0 1.93 4.56Z"/><path fill="#88a4b7" d="M152.38 315.72c-2 2-2.77 4.16-1.65 15.3h26.46c1.4-9.16 3.4-12.34 1-15.65-4.49-6.03-19.14-6.37-25.81.35Z"/><path fill="#ffcd52" d="M421.97 325.02h16.94v170.76h-16.94z"/><path fill="#fda01f" d="M438.91 345.91c-1.26 1.25-2.62 2.71-4.17 4.4-2.72 2.94-5 5.94-12 16.94l-.77 1.21V445l2.53-1.89a88 88 0 0 0 14.41-13.56Z"/><path fill="#ffcd52" d="M.5 293.19h512v31.82H.5zM73.97 325.02h16.94v170.76H73.97z"/><path fill="#fda01f" d="M73.97 325.02h16.94v6H73.97z"/><path fill="#ffcd52" d="M247.97 325.02h16.94v170.76h-16.94z"/><path fill="#fda01f" d="M247.97 325.02h16.94v6h-16.94zM74 346.21a19 19 0 0 1 8.36-2.69 15.32 15.32 0 0 1 8.58 1.75 26.74 26.74 0 0 0-8.51-.75 41 41 0 0 0-8.43 1.69ZM74 352.88a19 19 0 0 1 8.36-2.69 15.32 15.32 0 0 1 8.58 1.75 26.74 26.74 0 0 0-8.51-.75 41 41 0 0 0-8.43 1.69ZM74 396.21a19 19 0 0 1 8.36-2.69 15.32 15.32 0 0 1 8.58 1.75 26.74 26.74 0 0 0-8.51-.75 41 41 0 0 0-8.43 1.69ZM74 402.88a19 19 0 0 1 8.36-2.69 15.32 15.32 0 0 1 8.58 1.75 26.74 26.74 0 0 0-8.51-.75 41 41 0 0 0-8.43 1.69ZM74 446.21a19 19 0 0 1 8.36-2.69 15.32 15.32 0 0 1 8.58 1.75 26.74 26.74 0 0 0-8.51-.75 41 41 0 0 0-8.43 1.69ZM74 452.88a19 19 0 0 1 8.36-2.69 15.32 15.32 0 0 1 8.58 1.75 26.74 26.74 0 0 0-8.51-.75 41 41 0 0 0-8.43 1.69ZM74 486.83a18.74 18.74 0 0 1 8.36-2.69 15.23 15.23 0 0 1 8.58 1.75 26.75 26.75 0 0 0-8.51-.76 41.06 41.06 0 0 0-8.43 1.7ZM74 493.5a18.74 18.74 0 0 1 8.36-2.69 15.23 15.23 0 0 1 8.58 1.75 26.75 26.75 0 0 0-8.51-.76 41.06 41.06 0 0 0-8.43 1.7ZM422 344.7a18.51 18.51 0 0 1 8.43-2.44 15.16 15.16 0 0 1 8.51 2.08 25.86 25.86 0 0 0-8.47-1.08 39.73 39.73 0 0 0-8.47 1.44Z"/><path fill="#d86c1d" d="M422 351.38a18.65 18.65 0 0 1 8.43-2.45 15.18 15.18 0 0 1 8.51 2.08 26.41 26.41 0 0 0-8.47-1.08 39 39 0 0 0-8.47 1.45Z"/><path fill="#fda01f" d="M422 444.7a18.51 18.51 0 0 1 8.43-2.44 15.16 15.16 0 0 1 8.51 2.08 25.86 25.86 0 0 0-8.47-1.08 39.73 39.73 0 0 0-8.47 1.44ZM422 451.38a18.65 18.65 0 0 1 8.43-2.45 15.18 15.18 0 0 1 8.51 2.08 26.41 26.41 0 0 0-8.47-1.08 39 39 0 0 0-8.47 1.45ZM422 486.83a18.64 18.64 0 0 1 8.43-2.44 15.16 15.16 0 0 1 8.51 2.08 26.41 26.41 0 0 0-8.47-1.08 39.73 39.73 0 0 0-8.47 1.44ZM422 493.51a18.51 18.51 0 0 1 8.43-2.44 15.26 15.26 0 0 1 8.51 2.07 26.12 26.12 0 0 0-8.47-1.07 39 39 0 0 0-8.47 1.44ZM248 373.49a18.51 18.51 0 0 1 8.43-2.44 15.16 15.16 0 0 1 8.51 2.08 25.86 25.86 0 0 0-8.47-1.08 39.73 39.73 0 0 0-8.47 1.44Z"/><path fill="#d86c1d" d="M248 380.16a18.51 18.51 0 0 1 8.43-2.44 15.16 15.16 0 0 1 8.51 2.08 25.86 25.86 0 0 0-8.47-1.08 39.73 39.73 0 0 0-8.47 1.44Z"/><path fill="#fda01f" d="M248 423.49a18.51 18.51 0 0 1 8.43-2.44 15.16 15.16 0 0 1 8.51 2.08 25.86 25.86 0 0 0-8.47-1.08 39.73 39.73 0 0 0-8.47 1.44ZM248 430.16a18.51 18.51 0 0 1 8.43-2.44 15.16 15.16 0 0 1 8.51 2.08 25.86 25.86 0 0 0-8.47-1.08 39.73 39.73 0 0 0-8.47 1.44ZM248 473.49a18.51 18.51 0 0 1 8.43-2.44 15.16 15.16 0 0 1 8.51 2.08 25.86 25.86 0 0 0-8.47-1.08 39.73 39.73 0 0 0-8.47 1.44ZM248 480.16a18.51 18.51 0 0 1 8.43-2.44 15.16 15.16 0 0 1 8.51 2.08 25.86 25.86 0 0 0-8.47-1.08 39.73 39.73 0 0 0-8.47 1.44Z"/><path fill="#0850ec" d="M83.64 196.36a22.28 22.28 0 014.08.62 34.46 34.46 0 013.82 1.16 1.69 1.69 0 011 2.17 1.63 1.63 0 01-.54.69l-.27.22a43 43 0 01-7.11 4.68v-2.94a33.55 33.55 0 012.78 2.69 21.6 21.6 0 012.45 3.16 22 22 0 01-3.8-1.24 31.86 31.86 0 01-3.47-1.7 1.63 1.63 0 01-.63-2.24 1.7 1.7 0 01.38-.46l.29-.23a43 43 0 017.08-4.72l.22 3.12a35.49 35.49 0 01-3.3-2.24 22.62 22.62 0 01-2.98-2.74zM97.88 219.8a15.69 15.69 0 013.41.3 23.5 23.5 0 013.15.83 1.68 1.68 0 011 2.12 1.71 1.71 0 01-.5.73l-.33.28a28.74 28.74 0 01-5.77 3.79v-2.94a21.53 21.53 0 012.19 2.28 14.84 14.84 0 011.87 2.74 15.09 15.09 0 01-3.21-.82 22.85 22.85 0 01-2.89-1.29 1.61 1.61 0 01-.67-2.18 1.53 1.53 0 01.37-.46l.34-.3a28.79 28.79 0 015.75-3.83l.22 3.13a21.88 21.88 0 01-2.63-1.93 15.41 15.41 0 01-2.3-2.45zM101.56 178.37c1 .18 2 .41 3 .67s2 .53 2.92.84q2.89.92 5.68 2a1.74 1.74 0 011 2.25 1.71 1.71 0 01-.56.73l-.19.14a98.3 98.3 0 01-10.8 7.13v-2.94c1.51 1.22 3 2.49 4.41 3.83a47.44 47.44 0 014.08 4.29 46.39 46.39 0 01-5.43-2.37c-1.74-.88-3.44-1.84-5.1-2.84a1.7 1.7 0 01-.57-2.33 1.69 1.69 0 01.42-.46l.19-.15a100.74 100.74 0 0110.78-7.16l.22 3.13q-2.61-1.43-5.16-3.13c-.84-.56-1.66-1.15-2.49-1.75s-1.62-1.19-2.4-1.88zM105.35 137.69c2.34.33 4.63.79 6.89 1.32 1.14.24 2.27.53 3.39.82s2.25.58 3.37.9a1.31 1.31 0 01.91 1.62 1.23 1.23 0 01-.36.6l-.08.08q-5.48 5.15-11.35 9.82l-.26-2.19c1 .56 1.94 1.15 2.9 1.74s1.92 1.18 2.86 1.8c1.89 1.22 3.76 2.49 5.56 3.89-2.17-.68-4.29-1.49-6.37-2.35-1-.42-2.08-.86-3.11-1.32s-2.06-.91-3.07-1.39a1.3 1.3 0 01-.62-1.73 1.21 1.21 0 01.28-.38l.08-.08q5.46-5.16 11.33-9.85l.46 2.3c-1.08-.4-2.17-.82-3.24-1.26s-2.16-.86-3.23-1.34c-2.14-.91-4.26-1.89-6.34-3zM135.6 175.41a54.78 54.78 0 015.64.91c1.86.37 3.69.82 5.51 1.31a1.32 1.32 0 01.93 1.61 1.36 1.36 0 01-.36.6l-.1.09a116.1 116.1 0 01-9.21 8l-.25-2.19c1.56.94 3.12 1.9 4.62 2.94a53.82 53.82 0 014.44 3.31 52.81 52.81 0 01-5.24-1.76c-1.72-.64-3.4-1.37-5.06-2.12a1.3 1.3 0 01-.64-1.7 1.39 1.39 0 01.28-.39l.1-.1a116.07 116.07 0 019.19-8l.46 2.3c-1.75-.68-3.5-1.39-5.22-2.19a53.05 53.05 0 01-5.09-2.62zM132.56 102.15c3.44.84 6.84 1.76 10.24 2.72s6.78 2 10.14 3a.87.87 0 01.58 1.1.78.78 0 01-.24.39c-2.82 2.56-5.69 5-8.54 7.56l-4.33 3.71c-1.44 1.24-2.91 2.45-4.37 3.67l-.17-1.45q4.5 2.46 8.94 5c3 1.7 5.9 3.44 8.8 5.26-3.15-1.35-6.26-2.77-9.34-4.23s-6.16-3-9.21-4.48a.87.87 0 01-.39-1.17.83.83 0 01.19-.26c1.42-1.27 2.81-2.55 4.25-3.8l4.29-3.76c2.88-2.48 5.75-5 8.68-7.4l.31 1.52c-3.34-1.14-6.65-2.33-10-3.56s-6.56-2.46-9.83-3.82z" opacity=".31"/><path fill="none" stroke="#fda01f" stroke-miterlimit="10" stroke-width="2" d="M6.79 293.19 5.4 325.02M13.53 293.19l-.84 31.83M18.81 293.19v31.83M23.97 293.19v31.83M29.7 293.19v31.83M35.64 293.19l2.16 31.83M42.03 293.19l.36 31.83M48.78 293.19l-1.53 31.83M53.1 293.19l.45 31.83M60.3 293.19l.36 31.83M67.14 293.19l.36 31.83M73.29 293.19l1.41 31.83M80.1 293.19l.9 31.83M88.56 293.19v31.83M96.84 293.19v31.83M103.79 293.19v31.83M112.32 293.19l-.81 31.83M120.78 293.19l-.72 31.83M128.25 293.19l-1.26 31.83M133.74 293.19v31.83M140.49 293.19l-.45 31.83M147.79 293.19l-1.39 31.83M154.53 293.19l-.84 31.83M159.81 293.19v31.83M164.97 293.19v31.83M170.7 293.19v31.83M176.64 293.19l2.16 31.83M183.03 293.19l.36 31.83M189.78 293.19l-1.53 31.83M194.1 293.19l.45 31.83M201.3 293.19l.36 31.83M208.14 293.19l.36 31.83M214.29 293.19l1.41 31.83M221.1 293.19l.9 31.83M229.56 293.19v31.83M237.84 293.19v31.83M244.79 293.19v31.83M253.32 293.19l-.81 31.83M261.78 293.19l-.72 31.83M269.25 293.19l-1.26 31.83M274.74 293.19v31.83M281.49 293.19l-.45 31.83M289.79 293.19l-1.39 31.83M296.53 293.19l-.84 31.83M301.81 293.19v31.83M306.97 293.19v31.83M312.7 293.19v31.83M318.64 293.19l2.16 31.83M325.03 293.19l.36 31.83M331.78 293.19l-1.53 31.83M336.1 293.19l.45 31.83M343.3 293.19l.36 31.83M350.14 293.19l.36 31.83M356.29 293.19l1.41 31.83M363.1 293.19l.9 31.83M371.56 293.19v31.83M379.84 293.19v31.83M386.79 293.19v31.83M395.32 293.19l-.81 31.83M403.78 293.19l-.72 31.83M411.25 293.19l-1.26 31.83M416.74 293.19v31.83M423.49 293.19l-.45 31.83M430.79 293.19l-1.39 31.83M437.53 293.19l-.84 31.83M442.81 293.19v31.83M447.97 293.19v31.83M453.7 293.19v31.83M459.64 293.19l2.16 31.83M466.03 293.19l.36 31.83M472.78 293.19l-1.53 31.83M477.1 293.19l.45 31.83M484.3 293.19l.36 31.83M491.14 293.19l.36 31.83M497.29 293.19l1.41 31.83M504.1 293.19l.9 31.83M512.56 293.19v31.83"/><path fill="#a8bed3" d="M61 280.54s-4.23 5.65-4.35 6.59c0 0 4.12-1.76 4.47-1.17 0 0-3.82 6.17-3.82 7.23l256.55.08c4.24.61 15.13 2.81 19.27 5.16 6.55 3.71 9.59 9.63 11.65 13.76 2.17 4.38 5.51 12.75 5.29 28.94-.18 12.95-2.4 13.56-4.23 30.71-1.38 12.83-2.36 22.65 0 34.94 1.5 7.86 3.21 16.79 9.88 25.76 2.68 3.62 14 17.83 32.12 19.42 15.16 1.33 26.25-7 36.7-14.83 21.25-15.94 29.26-36.32 35.65-52.59 10.26-26.12 5.82-35.44 4.59-37.76-3.07-5.76-9.82-12.59-16.94-12-4.53.37-7.6 3.61-13.06 9.53-2.72 2.94-5 5.94-12 16.94-5.61 8.87-8.14 13.3-13.42 19.41-5.44 6.31-7.87 7.51-10.23 7.77-5.89.64-10.77-4.62-12.71-6.71-2.91-3.14-6-8-8.11-19.41-1.93-10.48-.66-13.68-1.42-24.35s-1.47-20.86-6.7-30.36c-7.16-13-29-22-33.65-24.23 2.74-7.81 8.15-26.68 2.12-48.94-1.93-7.12-11.55-38.63-40-49.41-16.78-6.36-31.54-1.94-51.3 3-27.93 7.06-46.62 21.29-60.7 32.24-15.43 12-23.89 24.48-31.06 33.18 1.65-8-6.12-31.77-6.12-31.77-7.06 4.71-19.06 24-19.06 24-4.22-2.64-9.63-5.35-20.23-6.83-10-1.39-14.69-.66-19.41.61L76.5 221.72c-3.29 5.65-1.18 24.71-1.18 24.71A35.4 35.4 0 0 0 61 280.54"/><path fill="#63717c" d="M148.15 274.43c1.34 1.19 2.64 2.41 4 3.61s2.61 2.45 3.92 3.68a.33.33 0 0 1 0 .47.32.32 0 0 1-.34.09l-4.43-1.39-4.42-1.44.45-.78c1.43 1.29 2.82 2.61 4.15 4a28.73 28.73 0 0 1 1.89 2.22 11.15 11.15 0 0 1 .83 1.24 5.14 5.14 0 0 1 .33.75 1.27 1.27 0 0 1-.06 1.07.42.42 0 0 1-.49.21c-1.26-.34-2.5-.69-3.74-1.09-.61-.21-1.23-.41-1.85-.68a4.06 4.06 0 0 1-1-.55l-.14-.15-.06-.1-.13-.21-.26-.4a.37.37 0 0 1 .11-.51.38.38 0 0 1 .41 0c1.7 1.14 3.37 2.3 5 3.52.81.63 1.62 1.25 2.4 1.91a13 13 0 0 1 2.15 2.17 15.6 15.6 0 0 0-2.31-2c-.82-.6-1.66-1.16-2.51-1.73-1.69-1.12-3.41-2.22-5.14-3.28l.51-.52.27.4.14.2.07.1a4.19 4.19 0 0 0 .73.35c.58.22 1.18.43 1.79.61 1.22.38 2.47.71 3.7 1l-.5.2a.71.71 0 0 0 0-.32 2.76 2.76 0 0 0-.26-.56 11.18 11.18 0 0 0-.77-1.12c-.57-.73-1.21-1.43-1.86-2.12a83.829 83.829 0 0 0-4-4 .46.46 0 0 1 0-.65.47.47 0 0 1 .49-.12l4.4 1.5 4.38 1.56-.35.56c-1.24-1.29-2.5-2.56-3.73-3.86s-2.56-2.52-3.77-3.84Z"/><path fill="#ffccd8" d="M80.52 244.34V233l5.16 9.74s-3.4-.3-5.16 1.6ZM140.38 247.13l6.62-10.56v13.15s-1.5-4.03-6.62-2.59Z"/><path fill="#63717c" d="M146.21 260a14.68 14.68 0 0 1 4.15 3 18 18 0 0 1 3.1 4.12 19.51 19.51 0 0 1 2.28 7.36c.06.85.06 1.71 0 2.56a41.14 41.14 0 0 0-1.23-4.89 25 25 0 0 0-2-4.54 24.68 24.68 0 0 0-2.8-4.09 25.29 25.29 0 0 0-3.5-3.52Z"/><path fill="none" stroke="#475259" stroke-linecap="round" stroke-linejoin="round" stroke-width="2" d="M77.56 275.84s-3.26-3.88-7.24-4.5M110 276.54a13.8 13.8 0 0 1 12.79-3"/><path fill="#63717c" d="M103 283.37a49.16 49.16 0 0 1 9.29-4.2 57.67 57.67 0 0 1 9.94-2.43c1.69-.29 3.39-.4 5.09-.56l2.57-.06h1.28l1.28.07a45.66 45.66 0 0 1 10.08 1.52c-.84-.09-1.69-.2-2.52-.31a23.81 23.81 0 0 0-2.53-.25l-2.52-.18h-2.53c-1.68-.05-3.36.11-5 .19s-3.35.3-5 .6a75.6 75.6 0 0 0-9.85 2.17l-2.42.74-2.39.84c-1.68.49-3.25 1.17-4.77 1.86Z"/><path fill="#63717c" d="M105.35 284.66a61.4 61.4 0 0 1 7.82-2.52 64.77 64.77 0 0 1 8.08-1.57 46.3 46.3 0 0 1 8.24-.38 26.32 26.32 0 0 1 8.07 1.56c-.68-.12-1.35-.24-2-.38s-1.35-.15-2-.24a19.58 19.58 0 0 0-2-.14c-.67 0-1.35-.07-2 0l-2 .05-2 .13c-1.35.1-2.7.24-4 .42-2.7.32-5.37.82-8 1.33-1.34.25-2.67.54-4 .85s-2.87.57-4.21.89ZM104.74 286.34a66.91 66.91 0 0 1 7-1.31 70.9 70.9 0 0 1 7.14-.63 44.23 44.23 0 0 1 7.18.27 22.79 22.79 0 0 1 3.54.76 7.52 7.52 0 0 1 3.11 1.79 8.2 8.2 0 0 0-3.24-1.32 22.56 22.56 0 0 0-3.48-.46 69.64 69.64 0 0 0-7.08 0c-2.36.07-4.72.24-7.09.39ZM77.5 281.37c-1.55-.69-3.11-1.34-4.71-1.89l-2.39-.84-2.4-.74a75.74 75.74 0 0 0-9.86-2.17c-1.66-.3-3.33-.42-5-.6s-3.36-.24-5-.19h-2.53l-2.52.18a23.37 23.37 0 0 0-2.52.25c-.84.11-1.68.22-2.53.31a45.75 45.75 0 0 1 10.09-1.52l1.28-.07h1.28l2.56.06c1.7.16 3.41.27 5.09.56a57.23 57.23 0 0 1 9.94 2.43 49.16 49.16 0 0 1 9.22 4.23Z"/><path fill="#63717c" d="M75.12 282.66c-1.33-.32-2.66-.65-4-.92s-2.66-.6-4-.85c-2.67-.51-5.34-1-8-1.33q-2-.27-4.05-.42L53 279h-4a19.39 19.39 0 0 0-2 .14c-.67.09-1.36.1-2 .24s-1.33.26-2 .38a26.38 26.38 0 0 1 8-1.57 46.3 46.3 0 0 1 8.24.38 64.77 64.77 0 0 1 8.08 1.57 60.89 60.89 0 0 1 7.8 2.52ZM75.74 284.34l-7.12-.55c-2.36-.15-4.73-.32-7.09-.39a69.46 69.46 0 0 0-7.07 0 22.85 22.85 0 0 0-3.49.46 8.16 8.16 0 0 0-3.23 1.32 7.42 7.42 0 0 1 3.1-1.79 22.79 22.79 0 0 1 3.54-.76 44.35 44.35 0 0 1 7.19-.27 70.7 70.7 0 0 1 7.13.63 67.1 67.1 0 0 1 7.04 1.35Z"/><path fill="#ffccd8" d="M88.77 284c-1.8-1.21-1.42-2.35-3.45-3.53-1.76-1-2.77-.58-3.44-1.59-1-1.5.3-3.89.53-4.32s1.45-2.7 3.71-3.09c1.58-.28 2 .67 4.5 1.06 1.31.2 1.4 0 5.12-.27 5-.32 5.77 0 6.26.44a4 4 0 0 1 1.32 4c-.65 2.05-3.25 1.52-5.64 4.33-1.53 1.8-1 2.68-2.38 3.53-1.85 1.07-4.69.64-6.53-.56Z"/><path fill="#63717c" d="M91.09 292.07a7.93 7.93 0 0 1-.53-3.56 9 9 0 0 1 .86-3.49 15.19 15.19 0 0 1 .14 3.55 21.73 21.73 0 0 1-.47 3.5ZM212.38 261.84a39.58 39.58 0 0 1 3.09 4.9 45.68 45.68 0 0 1 2.47 5.25 31.72 31.72 0 0 1 1.67 5.58 15.11 15.11 0 0 1 .19 5.8 22.57 22.57 0 0 0-1-5.62 51.07 51.07 0 0 0-1.84-5.39c-.69-1.78-1.45-3.53-2.23-5.28ZM242.85 268.47a26.22 26.22 0 0 1-.1-9.39 22.09 22.09 0 0 1 1.31-4.57 13.72 13.72 0 0 1 2.56-4 25.36 25.36 0 0 0-1.83 4.24 38.19 38.19 0 0 0-1.06 4.47c-.26 1.51-.43 3-.57 4.57s-.25 3.11-.31 4.68ZM249 270.31a108.79 108.79 0 0 1 3.53-10.84c1.34-3.56 2.9-7 4.58-10.45a71.07 71.07 0 0 1 5.87-9.81 30.66 30.66 0 0 1 8-8.08c-.7.64-1.41 1.27-2.12 1.89s-1.27 1.4-1.9 2.1-1.17 1.48-1.75 2.21a26.72 26.72 0 0 0-1.62 2.32c-1.06 1.55-2 3.18-3 4.8s-1.81 3.31-2.63 5c-1.73 3.35-3.28 6.81-4.76 10.29q-1.12 2.61-2.16 5.25c-.71 1.77-1.39 3.54-2.04 5.32Z"/><path d="m295.8 297.49 2.7-4c.88-1.34 1.78-2.67 2.6-4.05s1.65-2.75 2.36-4.18a30.56 30.56 0 0 0 1.86-4.44 15.7 15.7 0 0 1-1.14 4.76 29 29 0 0 1-2.22 4.38 36.27 36.27 0 0 1-6.16 7.53Z"/><path fill="#63717c" d="M187.29 245.22A87.15 87.15 0 0 1 201 230.54a100.64 100.64 0 0 1 16.39-11.62l2.18-1.25c.74-.39 1.51-.75 2.26-1.12 1.51-.73 3-1.51 4.53-2.18a91.24 91.24 0 0 1 9.41-3.55l2.4-.75c.8-.25 1.6-.52 2.42-.69l4.9-1.12a43.35 43.35 0 0 1 4.95-.84l5-.66a114.21 114.21 0 0 0-19.44 4.79c-3.18 1-6.21 2.38-9.29 3.65-1.51.68-3 1.47-4.47 2.2-.74.38-1.49.73-2.22 1.13l-2.16 1.26c-2.92 1.58-5.68 3.44-8.46 5.27l-4 2.95c-1.32 1-2.6 2.08-3.91 3.11s-2.51 2.18-3.78 3.27-2.43 2.28-3.62 3.44a87.46 87.46 0 0 0-6.8 7.39ZM315.8 213.29a45.67 45.67 0 0 1 4.74 7.63 53.22 53.22 0 0 1 3.34 8.38 43.64 43.64 0 0 1 1.76 8.85 36.46 36.46 0 0 1-.2 9V243.8l-.09-1.12-.15-2.22-.3-2.2a57.91 57.91 0 0 0-2-8.65 73.09 73.09 0 0 0-3.07-8.34c-.6-1.36-1.23-2.71-1.92-4s-1.36-2.69-2.11-3.98ZM161.74 263.49a9.91 9.91 0 0 1 2.43 2.23 17.41 17.41 0 0 1 1.82 2.77 16.74 16.74 0 0 1 1.83 6.31c-.48-1-.89-2-1.34-3s-.9-1.94-1.38-2.89a40.67 40.67 0 0 0-3.36-5.42ZM170.74 284.85c1.79 1.2 3.47 2.47 5.2 3.68.85.62 1.72 1.2 2.59 1.8l2.68 1.74a16 16 0 0 1-5.85-2.72 24.87 24.87 0 0 1-2.5-2.06 16.42 16.42 0 0 1-2.12-2.44Z"/><path fill="#ffccd8" d="M455.28 396.46a57.83 57.83 0 0 0-27.39-43.16 65.76 65.76 0 0 1 6.84-9c5.46-5.92 8.54-9.16 13.06-9.53 7.12-.59 13.88 6.24 16.94 12 1.24 2.32 5.68 11.64-4.58 37.76-1.48 3.79-3.06 7.79-4.87 11.91Z"/><path fill="#63717c" d="M356.74 396.46a83.79 83.79 0 0 0 2.57 9.34 77.24 77.24 0 0 0 3.58 9c2.76 5.78 6.25 11.34 11.14 15.47a25 25 0 0 0 17.55 6.18c.8 0 1.59-.14 2.39-.21.39 0 .8-.06 1.19-.13l1.18-.24c.78-.17 1.58-.29 2.35-.5l2.31-.7c.38-.12.77-.22 1.15-.35l1.13-.44 2.25-.88c1.47-.66 2.91-1.39 4.38-2.07a42.1 42.1 0 0 1-18.29 6.29 25.48 25.48 0 0 1-9.72-1.31 26.61 26.61 0 0 1-8.52-4.88 37.15 37.15 0 0 1-6.47-7.36 54 54 0 0 1-4.72-8.55 73.77 73.77 0 0 1-5.45-18.66Z"/><path fill="#a8bed3" d="M171.32 282.19a15.69 15.69 0 0 1 8.24 6.12c.83 1.25 1.3 2.47 2.35 6.12 2.08 7.16 2.83 11.06 2.83 11.06 1.79 9.36 2.72 14.24 3.53 22.11 1.52 15-.08 14.92 1.17 28.24 1.43 15.21 4.38 24.34 5.65 28 4.63 13.29 9.35 17.87 12.47 20.23 1.71 1.3 8.53 6.45 12.94 4 3.37-1.87 3.64-7.23 3.77-9.64.37-7.31-2.76-10.89-5.18-18.12-2.23-6.66-2.27-11.73-2.35-21.88-.09-11 1.57-11.58 2.11-25.41.25-6.11 0-11.44-.47-22.12-.76-17.12-1.79-21.11-3.06-24.47a45.77 45.77 0 0 0-7.52-12.94"/><path fill="#63717c" d="M217 293.19c-.47-1.78-.94-3.55-1.56-5.25a53.65 53.65 0 0 0-2.16-5 80 80 0 0 0-5.48-9.46 33.63 33.63 0 0 1 8.38 14.21 23.37 23.37 0 0 1 .82 5.5ZM171.32 282.19a12.68 12.68 0 0 1 7 3.78 11.59 11.59 0 0 1 2.28 3.37 16.77 16.77 0 0 1 1 3.89c-.57-1.2-1.07-2.43-1.67-3.55a11.61 11.61 0 0 0-1-1.57 15.55 15.55 0 0 0-1.24-1.45 22 22 0 0 0-6.37-4.47Z"/><path fill="#ffccd8" d="M198.84 393.22s14 10.08 24.31-2.67a20.24 20.24 0 0 1 1.11 7.88c-.12 2.41-.39 7.77-3.76 9.64-4.41 2.45-11.23-2.7-12.94-4-2.2-1.66-5.19-4.43-8.39-10.57"/><path fill="#63717c" d="M207.12 396.66c1.63 2.15 3.12 4.34 4.71 6.46.78 1.06 1.61 2.08 2.48 3.07a10.38 10.38 0 0 0 3 2.51 7.19 7.19 0 0 1-3.55-2 21.11 21.11 0 0 1-2.73-3 29 29 0 0 1-3.91-7.04ZM217.47 395.34c.23 2.28.36 4.52.68 6.71a19.11 19.11 0 0 0 .7 3.21 6.12 6.12 0 0 0 1.65 2.81 4.67 4.67 0 0 1-2.38-2.52 12 12 0 0 1-1-3.36 19 19 0 0 1-.16-3.45 16.28 16.28 0 0 1 .51-3.4Z"/><path fill="#a8bed3" d="M275.32 241.49a422 422 0 0 0-24.47 36c-2.46 4.09-5.4 9.14-5.88 16.23-.65 9.75 3.89 17.47 5.41 20 3.31 5.49 4.61 4.58 15.06 16.47 7.17 8.15 8.54 10.84 9.41 13.18 1.48 3.92 1.56 7.77 1.65 15.29.14 11.17-.94 13.3-.47 23.3.25 5.36.84 10.68 4 16 1.25 2.1 3.26 5.39 6.12 5.41 3.18 0 5.41-4 5.65-4.47 2.35-4.4-.12-7.27-.24-15.06-.1-6.45 1.49-11.49 3.06-16.47 1.73-5.5 2.79-6.27 4.7-11.3 1.72-4.5 4.77-12.48 4.24-20.94-.81-12.93-9.4-17.76-6.35-25.41 1.43-3.59 4.43-5.31 6.35-6.59 6.78-4.51 15.59-13.84 23.53-35.29"/><path fill="#63717c" d="M313.82 293.27c1.3-2 2.56-4.06 3.74-6.14s2.31-4.17 3.38-6.31 2.11-4.29 3.13-6.45l3-6.53c-.32 1.16-.69 2.3-1.07 3.45s-.81 2.26-1.24 3.39c-.87 2.24-1.87 4.44-2.95 6.59a62.94 62.94 0 0 1-3.62 6.27 47 47 0 0 1-4.37 5.73ZM275.32 241.49c-6 8.11-11.79 16.38-17.26 24.86-1.36 2.12-2.71 4.25-4 6.39l-2 3.23-1 1.62-.88 1.68c-.57 1.12-1.2 2.21-1.73 3.33s-1 2.26-1.49 3.42-.8 2.35-1.15 3.55-.57 2.43-.82 3.68a19.77 19.77 0 0 1 1.11-7.54 21.19 21.19 0 0 1 1.51-3.53 30.88 30.88 0 0 1 2-3.28l1.06-1.56 1-1.62 2-3.21q2-3.19 4.11-6.36 8.32-12.64 17.54-24.66Z"/><path fill="#ffccd8" d="M292.5 391.94c-5.18 4-10.69 3-14.67 1.25A25.38 25.38 0 0 0 280 398c1.25 2.1 3.26 5.39 6.12 5.41 3.18 0 5.41-4 5.64-4.47 1.33-2.46 1.16-4.42.74-7Z"/><path fill="#63717c" d="M283.5 394.71c.1 1.39.06 2.68.08 4 0 .65 0 1.29.07 1.94s.12 1.29.2 2a5 5 0 0 1-1-1.85 9 9 0 0 1-.3-2.06 10.07 10.07 0 0 1 .22-2.06 6.55 6.55 0 0 1 .73-1.97ZM288.8 394c-.15 1.56-.39 3-.57 4.51-.11.74-.17 1.48-.25 2.22s-.11 1.5-.21 2.29a8.93 8.93 0 0 1-.53-4.63 11.9 11.9 0 0 1 .53-2.29 8.19 8.19 0 0 1 1.03-2.1Z"/><path fill="#fda01f" d="M421.97 325.02h16.94v6h-16.94z"/><path fill="#63717c" d="M305.32 290.54a45.69 45.69 0 0 0 2.73-3.81c.86-1.3 1.69-2.62 2.44-4a84.31 84.31 0 0 0 4.12-8.37c.33-.7.59-1.44.88-2.16s.58-1.44.82-2.18l.79-2.2.7-2.22c.94-3 1.63-6 2.35-9.08-.18 1.56-.36 3.12-.61 4.67s-.58 3.1-1 4.61a60.46 60.46 0 0 1-3 9 57.9 57.9 0 0 1-4.39 8.36 40.48 40.48 0 0 1-5.83 7.38Z"/><path fill="#439916" d="M466.21 239c.55 2.62.91 5.25 1.2 7.89s.49 5.27.65 7.92.22 5.29.21 7.94a79 79 0 0 1-.36 8c-.55-2.62-.91-5.25-1.2-7.89s-.49-5.27-.65-7.92-.22-5.29-.2-7.94a79 79 0 0 1 .35-8Z"/><path fill="#439916" d="M482.92 254.05c-2.62.55-5.25.91-7.89 1.2s-5.27.49-7.92.65-5.29.22-7.94.21a79 79 0 0 1-8-.36c2.62-.55 5.25-.91 7.89-1.2s5.27-.49 7.92-.65 5.29-.22 7.94-.2a79 79 0 0 1 8 .35ZM487.14 258.48a36.56 36.56 0 0 1 1.06 5.3c.24 1.77.42 3.55.51 5.33s.12 3.56.07 5.35a36.47 36.47 0 0 1-.49 5.38 36.6 36.6 0 0 1-1.07-5.3c-.24-1.77-.42-3.55-.51-5.33s-.11-3.56-.06-5.35a36.35 36.35 0 0 1 .49-5.38Z"/><path fill="#439916" d="M498.39 268.58a36.33 36.33 0 0 1-5.3 1.07c-1.77.24-3.54.41-5.32.51s-3.57.11-5.36.07a36.62 36.62 0 0 1-5.38-.5 36.56 36.56 0 0 1 5.3-1.06c1.77-.24 3.55-.42 5.33-.51s3.56-.11 5.35-.06a37.73 37.73 0 0 1 5.38.48ZM192.71 19.84c.55 2.62.91 5.25 1.2 7.89s.49 5.28.65 7.92.22 5.29.21 7.94-.08 5.31-.35 8a78.74 78.74 0 0 1-1.21-7.89c-.3-2.63-.49-5.27-.65-7.91s-.22-5.29-.2-7.95a79 79 0 0 1 .35-8Z"/><path fill="#439916" d="M209.42 34.85c-2.62.55-5.25.91-7.89 1.2s-5.27.49-7.91.65-5.29.22-8 .21-5.3-.08-8-.35a78.74 78.74 0 0 1 7.89-1.21c2.64-.3 5.28-.49 7.92-.65s5.29-.22 7.94-.2a78.83 78.83 0 0 1 8.05.35ZM213.64 39.28a36.56 36.56 0 0 1 1.06 5.3c.24 1.77.42 3.55.51 5.33s.12 3.56.07 5.35a36.35 36.35 0 0 1-.49 5.38 36.6 36.6 0 0 1-1.07-5.3c-.24-1.77-.41-3.55-.5-5.33s-.12-3.56-.07-5.35a36.47 36.47 0 0 1 .49-5.38Z"/><path fill="#439916" d="M224.89 49.39a37.53 37.53 0 0 1-5.29 1.06c-1.78.24-3.55.41-5.33.51s-3.57.12-5.35.07a36.35 36.35 0 0 1-5.38-.49 34.93 34.93 0 0 1 5.29-1.07c1.77-.24 3.55-.42 5.33-.51s3.56-.11 5.35-.06a36.35 36.35 0 0 1 5.38.49ZM27.05 365.89c.55 2.62.91 5.25 1.2 7.89s.49 5.27.65 7.91.22 5.29.21 7.95-.08 5.3-.35 8a79.18 79.18 0 0 1-1.21-7.89c-.3-2.64-.49-5.28-.65-7.92s-.22-5.29-.2-7.94a78.83 78.83 0 0 1 .35-8Z"/><path fill="#439916" d="M43.76 380.89a78.74 78.74 0 0 1-7.89 1.21c-2.63.3-5.27.48-7.91.65s-5.29.22-7.95.2a79 79 0 0 1-8-.35 78.74 78.74 0 0 1 7.89-1.21c2.63-.3 5.28-.48 7.92-.64s5.29-.22 7.94-.21 5.34.08 8 .35ZM48 385.33a36.29 36.29 0 0 1 1.06 5.3c.25 1.77.42 3.54.51 5.32s.12 3.57.07 5.35a36.35 36.35 0 0 1-.49 5.38 36.2 36.2 0 0 1-1.07-5.29c-.24-1.77-.41-3.55-.5-5.33s-.12-3.56-.07-5.35a36.35 36.35 0 0 1 .49-5.38Z"/><path fill="#439916" d="M59.23 395.43a37.57 37.57 0 0 1-5.29 1.07c-1.78.24-3.55.41-5.33.5s-3.57.12-5.35.07a36.35 36.35 0 0 1-5.38-.49 37.57 37.57 0 0 1 5.29-1.07c1.78-.24 3.55-.41 5.33-.5s3.56-.12 5.35-.07a36.35 36.35 0 0 1 5.38.49Z"/><circle cx="399.32" cy="88.74" r="62.35" fill="none" stroke="#008ef8" stroke-linecap="round" stroke-linejoin="round"/><circle cx="399.32" cy="88.74" r="54" fill="#c1e3f7"/><path fill="#0850ec" d="M399.32 34.76a11.66 11.66 0 0 1 .5 3.63 11.55 11.55 0 0 1-.5 3.62 13.39 13.39 0 0 1 0-7.25ZM399.32 135.48a13.39 13.39 0 0 1 0 7.25 13.39 13.39 0 0 1 0-7.25ZM453.31 88.75a13.39 13.39 0 0 1-7.25 0 13.39 13.39 0 0 1 7.25 0ZM352.59 88.75a13.39 13.39 0 0 1-7.25 0 13.39 13.39 0 0 1 7.25 0ZM444.92 117.66a12.36 12.36 0 0 1-3.34-1.52 11.79 11.79 0 0 1-2.79-2.37 13.41 13.41 0 0 1 6.13 3.89ZM359.86 63.72a12.3 12.3 0 0 1-3.33-1.52 11.65 11.65 0 0 1-2.8-2.37 13.41 13.41 0 0 1 6.13 3.89ZM427.28 134.93a12.16 12.16 0 0 1-2.3-2.84 11.65 11.65 0 0 1-1.45-3.37 13.52 13.52 0 0 1 3.75 6.21ZM375.12 48.77a12.16 12.16 0 0 1-2.3-2.84 12 12 0 0 1-1.46-3.37 11.81 11.81 0 0 1 2.31 2.85 12 12 0 0 1 1.45 3.36ZM370.41 134.34a12.3 12.3 0 0 1 1.52-3.33 11.65 11.65 0 0 1 2.37-2.8 13.41 13.41 0 0 1-3.89 6.13ZM424.35 49.28a12 12 0 0 1 1.52-3.28 11.84 11.84 0 0 1 2.37-2.8 13.27 13.27 0 0 1-3.89 6.13ZM353.14 116.71a12 12 0 0 1 2.86-2.31 12.23 12.23 0 0 1 3.37-1.45 13.65 13.65 0 0 1-6.21 3.76ZM439.3 64.54a12.16 12.16 0 0 1 2.84-2.3 11.65 11.65 0 0 1 3.37-1.45 12 12 0 0 1-2.85 2.3 11.48 11.48 0 0 1-3.36 1.45ZM398.46 89.24 382.7 59.83l17.49 28.41a1 1 0 1 1-1.7 1.05Z"/><path fill="#0850ec" d="m398.9 87.83 24.26-10.37-23.41 12.18a1 1 0 1 1-.92-1.77Z"/><circle cx="399.32" cy="88.74" r="3.74" fill="#0850ec"/><path fill="none" stroke="#545454" stroke-linecap="round" stroke-linejoin="round" d="M.5 495.78h512.06"/></g></g></svg>